<svg width="100" height="100" viewBox="0 0 100 100" fill="none" xmlns="http://www.w3.org/2000/svg">
<g id="Random Symboles 12">
<g id="Group">
<path id="Vector" d="M19.5416 4.1253C17.589 2.49009 14.6155 3.87841 14.6155 6.42531V41.8709C14.6155 44.3094 17.3705 45.7292 19.3564 44.3141L42.2245 28.019C43.8236 26.8796 43.9151 24.5365 42.4097 23.2758L19.5416 4.1253Z" fill="#59906C"/>
<path id="Vector_2" d="M14.6152 93.5736C14.6152 96.1207 17.589 97.5089 19.5416 95.8734L42.4097 76.7182C43.915 75.4574 43.8232 73.1143 42.2239 71.975L19.3558 55.6846C17.3698 54.2699 14.6152 55.6897 14.6152 58.1281V93.5736Z" fill="#59906C"/>
<path id="Vector_3" d="M45.2666 48.7501C45.9612 48.607 46.5994 48.3178 47.1381 47.9022L78.0107 24.0817C81.8767 21.0988 78.5289 14.6642 73.4232 15.2643L62.7433 16.5195C61.9182 16.6165 61.1535 16.9134 60.5185 17.3835L26.0657 42.8875C21.9205 45.9561 25.7472 52.7726 31.0066 51.6887L45.2666 48.7501Z" fill="#59906C"/>
<path id="Vector_4" d="M30.99 48.2706C25.7306 47.1893 21.9067 54.0053 26.0518 57.0727L60.5186 82.5783C61.1535 83.0482 61.918 83.345 62.7428 83.4419L73.4263 84.6976C78.5318 85.2977 81.8797 78.8637 78.0142 75.8805L47.1409 52.0545C46.6017 51.6383 45.9625 51.3489 45.2669 51.2059L30.99 48.2706Z" fill="#59906C"/>
</g>
</g>
</svg>
