<svg width="692" height="445" viewBox="0 0 692 445" fill="none" xmlns="http://www.w3.org/2000/svg">
<path opacity="0.1" d="M29.3429 60.8709C30.4641 69.4912 33.3292 77.8171 33.3541 86.5354C33.4476 115.023 4.92695 132.52 0.560725 160.51C-2.03036 177.116 4.68404 194.085 14.1515 206.472C23.6189 218.859 35.6898 227.788 46.8078 237.979C77.5694 266.225 101.28 304.238 115.316 347.808C118.125 356.564 120.542 365.592 121.339 374.937C121.918 381.73 121.644 388.682 122.958 395.317C128.159 421.654 154.531 431.874 176.829 433.58C212.742 436.282 248.69 429.006 281.93 412.309C289.404 408.534 297.122 404.247 305.144 405.311C311.559 406.164 317.283 410.369 322.914 414.196C339.496 425.474 357.143 434.279 375.471 440.419C385.623 443.816 396.28 446.397 406.651 444.193C437.794 437.535 454.343 391.762 484.9 381.753C506.04 374.831 528.039 386.923 546.999 400.201C565.959 413.479 585.529 428.772 607.416 428.809C636.616 428.855 660.621 402.073 680.428 376.076C684.582 370.619 688.805 364.912 690.786 357.885C694.803 343.618 688.294 327.593 678.671 318.007C669.048 308.42 656.915 303.665 645.323 298.185C625.676 288.895 606.927 277.029 589.409 262.798C578.073 253.589 567.093 243.172 559.338 229.585C552.667 217.87 548.662 204.29 544.19 191.126C534.386 162.299 520.522 133.003 497.37 119.477C478.466 108.426 456.511 109.664 435.526 109.369C404.608 108.954 372.904 104.448 345.493 87.1167C322.341 72.4804 303.325 49.3747 279.831 35.5386C242.46 13.5501 199.738 17.8602 159.47 18.6906C140.118 19.0906 117.116 21.4306 98.5299 13.7464C84.7834 8.06243 77.7078 -3.55453 61.9183 1.12547C40.3239 7.50385 25.8923 34.278 29.3429 60.8709Z" fill="#59906C"/>
</svg>
