<svg width="692" height="445" viewBox="0 0 692 445" fill="none" xmlns="http://www.w3.org/2000/svg">
<g clip-path="url(#clip0)">
<path opacity="0.1" d="M29.3429 60.8709C30.4641 69.4912 33.3292 77.8171 33.3541 86.5354C33.4476 115.023 4.92695 132.52 0.560725 160.51C-2.03036 177.116 4.68404 194.085 14.1515 206.472C23.6189 218.859 35.6898 227.788 46.8078 237.979C77.5694 266.225 101.28 304.238 115.316 347.808C118.125 356.564 120.542 365.592 121.339 374.937C121.918 381.73 121.644 388.682 122.958 395.317C128.159 421.654 154.531 431.874 176.829 433.58C212.742 436.282 248.69 429.006 281.93 412.309C289.404 408.534 297.122 404.247 305.144 405.311C311.559 406.164 317.283 410.369 322.914 414.196C339.496 425.474 357.143 434.279 375.471 440.419C385.623 443.816 396.28 446.397 406.651 444.193C437.794 437.535 454.343 391.762 484.9 381.753C506.04 374.831 528.039 386.923 546.999 400.201C565.959 413.479 585.529 428.772 607.416 428.809C636.616 428.855 660.621 402.073 680.428 376.076C684.582 370.619 688.805 364.912 690.786 357.885C694.803 343.618 688.294 327.593 678.671 318.007C669.048 308.42 656.915 303.665 645.323 298.185C625.676 288.895 606.927 277.029 589.409 262.798C578.073 253.589 567.093 243.172 559.338 229.585C552.667 217.87 548.662 204.29 544.19 191.126C534.386 162.299 520.522 133.003 497.37 119.477C478.466 108.426 456.511 109.664 435.526 109.369C404.608 108.954 372.904 104.448 345.493 87.1167C322.341 72.4804 303.325 49.3747 279.831 35.5386C242.46 13.5501 199.738 17.8602 159.47 18.6906C140.118 19.0906 117.116 21.4306 98.5299 13.7464C84.7834 8.06243 77.7078 -3.55453 61.9183 1.12547C40.3239 7.50385 25.8923 34.278 29.3429 60.8709Z" fill="#59906C"/>
<path d="M601.885 268.368C600.907 264.444 601.01 260.242 602.178 256.396C604.046 250.538 608.599 246.311 610.2 240.325C613.177 229.207 605.155 218.797 600.234 208.72C595.721 199.371 593.676 188.571 594.373 177.772C595.139 166.178 599.057 155.089 599.356 143.465C599.624 132.633 596.728 122.095 593.869 111.829C591.508 103.345 589.104 94.7624 585.111 87.2291C577.562 72.9853 564.152 64.0329 550.362 62.5535C543.853 61.8515 537.488 64.4179 531.091 63.414C522.209 62.0251 513.813 59.2322 504.757 58.8849C496.155 58.5755 486.644 59.8964 480.783 67.5354C476.305 73.3854 474.872 81.832 470.774 88.0821C464.956 96.9515 454.785 99.9934 448.351 108.206C445.571 111.836 443.619 116.28 442.687 121.102C441.756 125.924 441.876 130.957 443.038 135.705C443.928 139.207 445.386 142.461 446.333 145.94C450.313 160.479 445.087 176.028 441.929 190.853C441.573 192.065 441.509 193.373 441.742 194.628C442.241 196.439 443.81 197.39 445.112 198.462C449.372 201.98 451.546 208.351 451.963 214.578C452.381 220.805 451.191 227.01 450.02 233.094C447.037 248.561 443.306 265.129 433.471 275.418C431.685 270.257 429.573 265.27 427.155 260.502C421.138 248.682 416.685 234.083 416.61 220.111C416.606 220.068 416.606 220.025 416.61 219.983C416.61 219.228 416.641 218.473 416.678 217.718C417.457 201.232 423.337 185.328 423.206 168.918C423.206 167.589 423.175 166.258 423.113 164.925C422.347 150.877 416.778 137.886 410.394 126.126C405.629 117.347 400.26 108.87 393.384 102.477C382.752 92.6715 369.242 88.4142 355.969 86.1648C342.696 83.9154 330.618 81.8018 317.239 80.7149C302.851 79.5449 287.018 78.8882 275.645 89.622C260.815 103.617 259.993 130.647 248.688 148.839C241.961 159.663 231.248 168.027 227.704 180.323C226.745 177.306 225.946 174.217 225.312 171.077C225.275 170.865 225.237 170.661 225.2 170.45C229.474 155.613 230.468 139.678 228.084 124.231C228.365 121.73 228.509 119.208 228.514 116.683C228.583 113.935 228.338 111.189 227.785 108.523C226.184 101.171 221.768 95.2908 217.501 89.7125C215.948 87.5829 214.261 85.6019 212.456 83.7871C201.291 67.3929 185.68 56.3426 168.412 52.6099C151.144 48.8772 133.344 52.705 118.19 63.4099C103.036 74.1147 91.5149 90.9993 85.6853 111.048C79.8556 131.097 80.0966 153.005 86.3652 172.858C85.817 178.006 84.1727 183.011 81.1519 186.641C79.7753 188.294 77.994 190.363 78.2929 192.476C78.2002 193.078 78.2701 193.7 78.4923 194.25C78.7983 194.909 79.2243 195.474 79.738 195.903C84.0954 199.939 89.5222 201.899 94.9917 201.414C99.6071 217.852 108.655 231.929 120.678 241.375C120.678 241.878 120.664 242.366 120.635 242.839C120.635 243.677 120.579 244.507 120.548 245.353C120.548 245.541 120.548 245.73 120.548 245.919C120.548 245.851 120.548 245.775 120.548 245.7C120.548 245.624 98.8597 279.962 78.8161 281.238C68.1155 281.917 58.7788 290.666 51.7032 300.667C43.2074 312.669 37.963 326.468 37.5145 330.287C36.6861 337.292 30.906 371.335 30.906 371.335H197.421C195.452 383.594 192.799 399.211 192.799 399.211H462.365C461.742 388.712 461.051 379.004 460.409 370.784H494.299L494.262 371.033H650.599L660.514 353C658.054 300.456 632.48 271.568 601.885 268.368ZM212.662 209.671C216.179 211.965 219.957 213.613 223.873 214.563C225.574 214.986 227.473 215.25 228.925 214.095C229.886 213.214 230.598 211.993 230.961 210.6L231.036 210.826C235.24 223.659 239.133 236.898 239.887 250.682C239.955 251.98 239.999 253.279 240.005 254.584C240.022 262.447 238.683 270.227 236.075 277.426C221.993 268.451 208.412 258.365 195.421 247.232L194.543 246.779C194.543 246.862 194.848 247.806 195.209 249.399C195.297 249.784 195.39 250.206 195.483 250.659C194.593 247.172 193.783 243.609 193.073 239.978C192.992 239.548 192.911 239.118 192.83 238.687C201.312 231.143 208.124 221.176 212.662 209.671Z" fill="url(#paint0_linear)"/>
<path d="M502.259 61.5572C493.794 61.2477 484.427 62.5536 478.665 70.0718C474.255 75.8236 472.848 84.142 468.812 90.2939C463.088 99.0274 453.078 102.017 446.738 110.101C444.001 113.673 442.079 118.048 441.162 122.795C440.244 127.541 440.363 132.495 441.506 137.169C442.384 140.611 443.816 143.82 444.751 147.239C448.668 161.581 443.555 176.851 440.391 191.442C440.038 192.639 439.975 193.933 440.21 195.171C440.696 196.953 442.247 197.889 443.524 198.945C447.715 202.41 449.858 208.675 450.238 214.797C450.618 220.919 449.478 227.033 448.326 233.019C445.268 248.87 441.406 265.937 430.786 275.924C426.302 280.189 420.31 283.646 419.139 290.439C417.769 298.395 424.034 305.159 430.045 308.759C447.691 319.327 468.176 319.478 487.479 324.188C504.476 328.34 521.431 336.205 538.634 333.518C546.301 332.325 553.632 329.057 560.889 325.819L606.071 305.642C607.347 305.169 608.547 304.437 609.621 303.475C612.343 300.728 612.436 295.504 610.954 291.602C609.471 287.699 606.781 284.71 604.414 281.51C599.257 274.512 595.333 264.631 598.148 255.89C600.016 250.123 604.47 245.964 606.046 240.039C608.973 229.094 601.063 218.843 596.267 208.924C591.83 199.731 589.818 189.115 590.499 178.497C591.253 167.084 595.108 156.169 595.389 144.725C595.65 134.067 592.804 123.695 589.988 113.588C587.665 105.24 585.298 96.7931 581.368 89.373C573.937 75.3557 560.739 66.5467 547.161 65.0823C540.752 64.3954 534.492 66.9166 528.195 65.9353C519.444 64.6294 511.172 61.8818 502.259 61.5572Z" fill="#F00E00"/>
<path d="M514.897 361.085C514.897 361.085 463.673 322.165 483.592 277.298C488.201 266.926 490.238 257.113 490.655 248.153C490.765 245.793 490.765 243.426 490.655 241.065C490.655 240.952 490.655 240.839 490.655 240.726C490.589 239.508 490.499 238.31 490.387 237.133C488.014 213.446 475.458 198.009 475.458 198.009C475.458 198.009 560.421 167.959 546.195 195.05C539.593 207.626 541.568 219.96 545.99 232.724C546.457 234.068 546.955 235.427 547.472 236.778C552.58 250.237 559.668 264.179 561.648 279.298C565.709 310.337 514.897 361.085 514.897 361.085Z" fill="#FFCFD1"/>
<path opacity="0.1" d="M546.195 195.05C539.593 207.626 541.568 219.96 545.99 232.724C537.793 239.129 528.385 242.897 518.654 243.674C508.922 244.45 499.188 242.21 490.369 237.163C488.014 213.446 475.458 198.009 475.458 198.009C475.458 198.009 560.428 167.952 546.195 195.05Z" fill="black"/>
<path d="M514.891 242.349C546.549 242.349 572.212 211.247 572.212 172.881C572.212 134.515 546.549 103.413 514.891 103.413C483.233 103.413 457.569 134.515 457.569 172.881C457.569 211.247 483.233 242.349 514.891 242.349Z" fill="#FFCFD1"/>
<path opacity="0.1" d="M490.655 241.095C490.655 240.982 490.655 240.869 490.655 240.756L490.724 240.62C490.686 240.786 490.661 240.944 490.655 241.095Z" fill="black"/>
<path opacity="0.1" d="M514.897 361.085C514.897 361.085 463.673 322.165 483.592 277.298C488.201 266.926 490.238 257.113 490.655 248.153C491.82 259.234 498.129 273.01 509.615 292.077C514.598 300.38 516.74 311.99 517.419 323.592L518.559 324.596L524.165 320.489C524.788 307.657 526.93 294.689 532 285.495C545.323 261.34 548.487 249.263 547.503 236.748C552.611 250.206 559.699 264.148 561.679 279.268C565.709 310.337 514.897 361.085 514.897 361.085Z" fill="black"/>
<path d="M597.014 267.598C566.494 264.911 547.186 236.197 547.186 236.197C548.811 249.648 546.17 261.688 531.938 287.526C526.899 296.69 524.763 309.635 524.14 322.497L518.534 326.604L517.394 325.6C516.715 314.006 514.579 302.381 509.59 294.085C495.364 270.436 489.036 254.917 490.686 242.598C490.686 242.598 475.034 273.388 444.545 275.856C414.056 278.324 388.444 304.434 385.997 352.223L395.75 368.482H491.963L491.926 368.731H645.771L655.563 350.97C653.115 298.796 627.534 270.285 597.014 267.598Z" fill="#59906C"/>
<path opacity="0.05" d="M597.014 267.598C566.494 264.911 547.186 236.197 547.186 236.197C548.811 249.648 546.17 261.688 531.938 287.526C526.899 296.69 524.763 309.635 524.14 322.497L518.534 326.604L517.394 325.6C516.715 314.006 514.579 302.381 509.59 294.085C495.364 270.436 489.036 254.917 490.686 242.598C490.686 242.598 475.034 273.388 444.545 275.856C414.056 278.324 388.444 304.434 385.997 352.223L395.75 368.482H491.963L491.926 368.731H645.771L655.563 350.97C653.115 298.796 627.534 270.285 597.014 267.598Z" fill="black"/>
<path opacity="0.1" d="M553.645 139.306C551.154 146.778 546.731 153.089 541.898 158.629C535.221 166.291 526.825 173.039 517.644 172.518C522.649 166.868 526.272 159.654 528.114 151.67C522.321 155.761 517.943 162.238 512.412 166.85C506.881 171.462 499.064 173.839 493.658 169.024C503.477 163.041 511.635 153.701 517.121 142.159C503.991 146.288 497.252 164.208 485.423 172.254C479.88 176.028 473.396 177.448 467.043 177.282C462.527 177.168 457.495 175.893 454.978 171.348C453.508 168.707 453.166 165.385 453.11 162.192C452.836 147.714 457.7 133.508 465.193 122.239C472.686 110.969 482.633 102.402 493.271 95.7514C497.058 93.3812 501.007 91.2224 505.224 90.4675C510.469 89.5466 515.813 90.8978 520.957 92.332C527.647 94.1889 534.374 96.2269 540.534 99.8804C553.682 107.768 559.425 122.065 553.645 139.306Z" fill="black"/>
<path d="M553.645 138.317C551.154 145.79 546.731 152.1 541.898 157.641C535.221 165.302 526.825 172.051 517.644 171.53C522.649 165.879 526.272 158.665 528.114 150.681C522.321 154.772 517.943 161.249 512.412 165.861C506.881 170.473 499.064 172.851 493.658 168.035C503.477 162.052 511.635 152.712 517.121 141.17C503.991 145.299 497.252 163.219 485.423 171.266C479.88 175.04 473.396 176.459 467.043 176.293C462.527 176.18 457.495 174.904 454.978 170.36C453.508 167.718 453.166 164.397 453.11 161.204C452.836 146.726 457.7 132.52 465.193 121.25C472.686 109.98 482.633 101.413 493.271 94.7626C497.058 92.3924 501.007 90.2336 505.224 89.4788C510.469 88.5579 515.813 89.909 520.957 91.3432C527.647 93.2001 534.374 95.2382 540.534 98.8916C553.682 106.765 559.425 121.076 553.645 138.317Z" fill="#F00E00"/>
<path d="M158.405 230.332C198.594 230.332 231.173 190.849 231.173 142.144C231.173 93.4391 198.594 53.9561 158.405 53.9561C118.216 53.9561 85.6365 93.4391 85.6365 142.144C85.6365 190.849 118.216 230.332 158.405 230.332Z" fill="#FFC700"/>
<path d="M223.655 311.869C223.655 311.869 157.01 332.559 155.359 334.514C153.709 336.469 99.2585 339.934 115.11 299.535C120.934 284.702 123.357 264.556 124.092 244.998C124.123 244.168 124.154 243.345 124.179 242.522C125.182 209.739 121.619 179.319 121.619 179.319C121.619 179.319 198.853 142.332 193.167 198.538C191.746 212.517 192.924 226.565 195.502 239.774C196.362 244.183 197.371 248.493 198.492 252.675C207.511 286.371 223.655 311.869 223.655 311.869Z" fill="#ECB4B6"/>
<path opacity="0.1" d="M195.496 239.789C185.252 248.994 172.934 254.189 160.189 254.68C147.443 255.171 134.878 250.934 124.173 242.537C125.176 209.754 121.613 179.334 121.613 179.334C121.613 179.334 198.847 142.347 193.16 198.553C191.746 212.54 192.924 226.587 195.496 239.789Z" fill="black"/>
<path d="M158.199 253.233C192.774 253.233 220.803 219.266 220.803 177.364C220.803 135.463 192.774 101.496 158.199 101.496C123.624 101.496 95.5959 135.463 95.5959 177.364C95.5959 219.266 123.624 253.233 158.199 253.233Z" fill="#ECB4B6"/>
<path opacity="0.1" d="M223.655 311.869C223.655 311.869 157.01 332.559 155.359 334.514C153.709 336.469 99.2585 339.934 115.11 299.535C120.934 284.703 123.357 264.556 124.092 244.998C124.715 255.219 129.536 279.97 130.152 288.205C130.191 288.686 130.271 289.162 130.389 289.624C131.292 293.285 134.512 297.505 138.393 301.505L138.623 301.739C143.45 306.646 149.439 309.565 155.725 310.073C162.011 310.582 168.268 308.655 173.59 304.57C179.13 300.34 184.447 295.697 189.51 290.666C196.76 283.412 199.021 273.637 199.302 265.001C199.418 260.856 199.146 256.708 198.492 252.637C207.511 286.371 223.655 311.869 223.655 311.869Z" fill="black"/>
<path d="M307.81 369.026H35.8206C35.8206 369.026 41.5135 335.526 42.3232 328.627C42.7654 324.852 47.9289 311.265 56.2939 299.467C63.2574 289.654 72.4445 281.011 82.977 280.34C102.69 279.087 124.036 245.36 124.036 245.36C124.509 255.173 129.504 280.8 130.134 289.209C130.173 289.69 130.252 290.166 130.37 290.628C131.273 294.289 134.494 298.509 138.374 302.509L138.604 302.743C143.43 307.652 149.419 310.573 155.705 311.083C161.992 311.593 168.249 309.666 173.572 305.581C179.11 301.35 184.427 296.706 189.492 291.677C196.742 284.423 199.003 274.648 199.283 266.013C199.426 260.282 198.853 254.559 197.583 249.036C197.228 247.466 196.96 246.545 196.922 246.462L197.788 246.908C197.788 246.908 234.618 279.366 268.358 292.636C272.312 294.196 276.043 296.488 279.42 299.429C282.155 301.826 284.673 304.566 286.931 307.604C291.498 313.864 295.276 320.907 298.143 328.506C305.966 348.6 307.81 369.026 307.81 369.026Z" fill="#59906C"/>
<path opacity="0.05" d="M307.81 369.026H35.8206C35.8206 369.026 41.5135 335.526 42.3232 328.627C42.7654 324.852 47.9289 311.265 56.2939 299.467C63.2574 289.654 72.4445 281.011 82.977 280.34C102.69 279.087 124.036 245.36 124.036 245.36C124.509 255.173 129.504 280.8 130.134 289.209C130.173 289.69 130.252 290.166 130.37 290.628C131.273 294.289 134.494 298.509 138.374 302.509L138.604 302.743C143.43 307.652 149.419 310.573 155.705 311.083C161.992 311.593 168.249 309.666 173.572 305.581C179.11 301.35 184.427 296.706 189.492 291.677C196.742 284.423 199.003 274.648 199.283 266.013C199.426 260.282 198.853 254.559 197.583 249.036C197.228 247.466 196.96 246.545 196.922 246.462L197.788 246.908C197.788 246.908 234.618 279.366 268.358 292.636C272.312 294.196 276.043 296.488 279.42 299.429C282.155 301.826 284.673 304.566 286.931 307.604C291.498 313.864 295.276 320.907 298.143 328.506C305.966 348.6 307.81 369.026 307.81 369.026Z" fill="black"/>
<path opacity="0.1" d="M188.296 151.889C189.915 159.437 192.033 167.823 197.595 171.756C198.34 172.189 199.027 172.757 199.632 173.439C201.002 175.244 200.585 178.059 200.379 180.505C199.669 188.899 202.646 197.406 207.53 203.422C212.413 209.438 219.021 213.114 225.842 214.805C227.511 215.22 229.386 215.484 230.824 214.344C231.797 213.449 232.512 212.205 232.867 210.789C234.767 204.667 233.964 197.791 232.375 191.541C230.787 185.29 228.445 179.327 227.243 172.949C224.384 157.814 228.171 142.174 229.878 126.783C230.444 121.665 230.775 116.389 229.685 111.399C228.109 104.168 223.761 98.3708 219.563 92.8831C217.302 89.9317 214.991 86.9274 212.089 84.9951C203.531 79.3262 192.512 84.361 183.375 80.232C179.719 78.5789 176.611 75.5596 173.129 73.4385C165.736 68.9095 156.972 68.6604 148.869 70.7211C140.766 72.7818 133.173 77.0164 125.655 81.2133L119.906 84.3685C111.809 88.8976 103.133 94.0154 98.7725 103.489C94.1322 113.573 95.4216 126.481 90.7813 136.566C89.3736 139.585 87.4116 142.484 87.0441 145.956C86.795 148.462 87.4303 150.968 88.022 153.391C89.467 159.286 90.7252 165.348 90.6131 171.507C90.501 177.667 88.8816 183.977 85.2814 188.31C83.7617 190.137 81.7312 192.477 82.6654 194.809C82.972 195.461 83.3982 196.019 83.9112 196.439C86.8679 199.161 90.3435 200.933 94.0161 201.593C97.6886 202.253 101.439 201.778 104.92 200.214C107.648 198.953 110.227 196.93 111.772 193.948C112.798 191.764 113.542 189.402 113.976 186.944C115.945 178.059 117.925 169.024 117.77 159.822C117.682 154.538 116.885 149.209 117.521 143.971C118.156 138.732 120.678 133.335 124.883 131.893C127.997 130.814 131.329 132.12 134.581 132.082C139.264 132.037 145.007 125.741 149.348 127.591C153.086 129.191 156.044 137.856 159.134 141.178C166.969 149.655 177.906 154.085 188.296 151.889Z" fill="black"/>
<path d="M188.296 150.9C189.915 158.448 192.033 166.834 197.595 170.767C198.329 171.191 199.008 171.746 199.607 172.413C200.977 174.217 200.56 177.032 200.354 179.478C199.644 187.872 202.621 196.379 207.505 202.395C212.388 208.411 218.996 212.087 225.817 213.778C227.486 214.193 229.361 214.457 230.799 213.317C231.772 212.422 232.487 211.178 232.842 209.762C234.742 203.64 233.939 196.764 232.35 190.514C230.762 184.264 228.42 178.3 227.218 171.922C224.359 156.787 228.146 141.147 229.853 125.756C230.419 120.638 230.75 115.362 229.66 110.372C228.084 103.141 223.736 97.344 219.538 91.8563C217.277 88.9049 214.966 85.9006 212.064 83.9682C203.506 78.2994 192.488 83.3342 183.35 79.2052C179.694 77.5521 176.586 74.5327 173.104 72.4116C165.711 67.8826 156.947 67.6335 148.844 69.6942C140.741 71.7549 133.148 75.9896 125.63 80.1865L119.956 83.3568C111.859 87.8858 103.182 93.0036 98.8223 102.477C94.182 112.562 95.4714 125.469 90.8311 135.554C89.4234 138.573 87.4614 141.472 87.0939 144.944C86.8448 147.45 87.4801 149.956 88.0718 152.379C89.5169 158.275 90.775 164.336 90.6629 170.495C90.5508 176.655 88.9314 182.965 85.3313 187.298C83.8115 189.125 81.781 191.465 82.7153 193.797C83.0218 194.449 83.448 195.007 83.961 195.428C86.9177 198.149 90.3934 199.922 94.0659 200.581C97.7384 201.241 101.489 200.767 104.97 199.202C107.698 197.941 110.277 195.918 111.821 192.937C112.848 190.753 113.592 188.39 114.026 185.932C115.994 177.047 117.975 168.012 117.819 158.81C117.732 153.527 116.935 148.197 117.57 142.959C118.206 137.72 120.728 132.323 124.932 130.881C128.047 129.802 131.379 131.108 134.63 131.07C139.314 131.025 145.057 124.73 149.398 126.579C153.135 128.179 156.094 136.845 159.183 140.166C166.969 148.673 177.906 153.104 188.296 150.9Z" fill="#FFC700"/>
<path d="M396.841 183.124H254.144V331.42H396.841V183.124Z" fill="#463A3E"/>
<path opacity="0.05" d="M396.841 183.124H254.144V331.42H396.841V183.124Z" fill="black"/>
<path d="M376.38 396.456H254.3C255.876 385.685 260.485 373.879 269.466 361.152C276.558 351.148 282.358 339.899 286.67 327.788C287.828 324.553 288.866 321.309 289.784 318.059C292.482 308.406 294.317 298.43 295.259 288.303C295.259 288.016 295.315 287.729 295.34 287.442C295.969 280.445 296.223 273.405 296.1 266.367C296.1 265.861 296.1 265.371 296.1 264.858C295.664 247.589 293.307 230.471 289.093 213.966L288.937 213.378C287.61 208.313 286.639 205.467 286.639 205.467C286.639 205.467 289.061 203.874 293.06 201.527L293.397 201.33C308.102 192.77 342.914 174.911 358.261 187.638L358.51 187.841C363.879 192.476 366.769 200.983 365.411 215.151C365.411 215.204 365.411 215.265 365.411 215.317C365.411 215.582 365.361 215.838 365.343 216.072C364.521 225.838 364.132 235.65 364.178 245.466C364.178 245.956 364.178 246.447 364.178 246.975C364.178 249.275 364.199 251.605 364.24 253.965C364.24 254.282 364.24 254.599 364.24 254.916C364.365 262.54 364.645 270.413 365.037 278.399C365.579 289.473 366.352 300.75 367.242 311.816C367.622 316.549 368.033 321.252 368.488 325.879C368.538 326.422 368.588 326.981 368.638 327.517C369.161 333.155 369.703 338.681 370.257 344.04L370.294 344.387C372.412 365.674 374.754 384.258 376.38 396.456Z" fill="#C17174"/>
<path opacity="0.1" d="M365.361 215.182C365.361 215.235 365.361 215.295 365.361 215.348C364.484 225.377 364.068 235.457 364.116 245.541C364.116 246.032 364.116 246.523 364.116 247.051C355.918 258.581 344.918 266.668 332.693 270.15C320.467 273.633 307.646 272.332 296.069 266.435C296.069 265.93 296.069 265.439 296.069 264.926C295.63 247.45 293.22 230.129 288.906 213.446C287.579 208.381 286.607 205.535 286.607 205.535C286.607 205.535 289.03 203.942 293.029 201.595C307.591 193.065 343.125 174.647 358.46 187.872C363.823 192.506 366.713 201.014 365.361 215.182Z" fill="black"/>
<path d="M319.121 270.526C351.91 270.526 378.491 238.313 378.491 198.575C378.491 158.838 351.91 126.624 319.121 126.624C286.331 126.624 259.75 158.838 259.75 198.575C259.75 238.313 286.331 270.526 319.121 270.526Z" fill="#C17174"/>
<path opacity="0.1" d="M322.266 395.965H195.608C195.608 395.965 201.301 362.466 202.111 355.566C202.553 351.792 207.717 338.205 216.082 326.407C226.826 316.02 240.133 310.298 253.877 310.155C278.1 309.718 285.15 319.825 287.062 327.298C287.73 329.803 287.901 332.464 287.561 335.065L292.145 343.112L322.266 395.965Z" fill="black"/>
<path d="M321.861 396.456H195.203C195.203 396.456 200.896 362.956 201.706 356.057C202.148 352.283 207.311 338.696 215.676 326.898C226.421 316.511 239.728 310.789 253.471 310.646C277.694 310.208 284.745 320.316 286.657 327.788C287.325 330.294 287.496 332.955 287.155 335.556L291.74 343.602L321.861 396.456Z" fill="#59906C"/>
<path opacity="0.1" d="M460.123 395.966H327.417C333.745 379.646 350.332 336.137 351.254 326.075C351.609 322.18 355.034 318.527 359.569 315.424C361.001 314.431 362.475 313.529 363.985 312.722L364.259 312.571C365.089 312.128 365.93 311.718 366.782 311.341C378.26 306.248 390.873 306.369 402.284 311.68C413.178 316.7 427.199 323.463 438.111 329.796L438.198 329.849C441.001 331.48 443.611 333.072 445.909 334.605C450.506 337.662 453.863 340.455 455.152 342.689C455.744 343.716 456.398 348.343 457.114 355.521C458.067 365.228 459.108 379.631 460.123 395.966Z" fill="black"/>
<path d="M460.528 396.456H327.822C334.15 380.137 350.737 336.628 351.659 326.566C352.014 322.671 355.439 319.017 359.974 315.915C361.406 314.921 362.88 314.019 364.39 313.213L364.664 313.062C365.494 312.619 366.335 312.209 367.186 311.831C378.665 306.739 391.278 306.859 402.689 312.171C413.583 317.191 427.603 323.954 438.516 330.287L438.603 330.34C441.406 331.97 444.016 333.563 446.314 335.095C450.911 338.153 454.268 340.945 455.557 343.18C456.149 344.206 456.803 348.833 457.519 356.012C458.478 365.719 459.512 380.129 460.528 396.456Z" fill="#59906C"/>
<path opacity="0.1" d="M439.17 317.538C439.17 319.858 439.118 322.18 439.014 324.505C438.956 325.637 438.886 326.77 438.803 327.902C438.746 328.717 438.678 329.525 438.609 330.333L438.522 331.269C437.507 342.244 435.632 353.159 435.408 364.187C435.408 364.708 435.408 365.229 435.408 365.75C435.364 376.106 436.747 386.304 438.622 396.456H362.197C362.073 394.577 362.011 392.682 362.029 390.818C362.029 389.134 362.116 387.451 362.26 385.76C363.437 371.864 369.298 358.858 370.182 345.052L370.22 344.418C370.276 343.384 370.307 342.342 370.295 341.3C370.295 341.21 370.295 341.119 370.295 341.021C370.198 336.456 369.618 331.925 368.569 327.54C368.519 327.321 368.47 327.102 368.42 326.883C367.352 322.533 366.104 318.25 364.683 314.051L364.409 313.213C362.334 306.933 360.154 300.705 358.678 294.463C357.505 289.814 356.898 284.982 356.878 280.121C356.878 279.253 356.922 278.385 356.978 277.516C357.028 276.807 357.096 276.097 357.183 275.38C357.32 274.26 357.502 273.149 357.732 272.051C358.977 266.103 361.637 260.525 364.184 255C367.018 248.848 369.721 242.764 370.207 236.295C370.269 235.477 370.292 234.655 370.276 233.834C370.256 232.776 370.173 231.722 370.027 230.679C369.373 226.089 367.423 221.96 365.822 217.726C365.66 217.295 365.499 216.865 365.343 216.427C365.343 216.359 365.293 216.292 365.274 216.224C362.16 207.505 360.354 198.206 358.454 188.951C358.373 188.551 358.292 188.151 358.205 187.759C357.738 185.494 357.258 183.23 356.747 180.965C353.957 168.616 349.983 156.138 342.422 147.224C334.86 138.309 322.802 133.795 313.334 139.472C305.144 144.416 300.709 155.482 298.71 166.291C296.71 177.1 296.548 188.385 293.951 199.013C293.764 199.788 293.556 200.561 293.328 201.331C293.216 201.723 293.104 202.085 292.992 202.516C291.877 206.365 290.5 210.177 289.018 213.967L288.862 214.367C284.129 226.572 278.629 238.567 278.454 250.833V250.991C278.454 251.324 278.454 251.648 278.454 251.98C278.487 254.895 278.851 257.791 279.538 260.585C280.784 265.613 283.039 269.998 285.667 274.173C286.186 274.993 286.718 275.805 287.261 276.611C289.877 280.506 292.718 284.28 295.203 288.296L295.284 288.424C297.174 291.39 298.769 294.615 300.036 298.033C301.539 302.314 302.324 306.915 302.345 311.567C302.366 316.219 301.624 320.83 300.161 325.132C299.455 327.12 298.646 329.051 297.738 330.914C296.137 334.265 294.375 337.526 292.986 341.013C292.518 342.183 292.101 343.376 291.74 344.584C288.626 354.306 287.953 365.063 285.412 375.094C283.443 382.797 280.381 390.023 276.362 396.449H195.39C196.331 390.871 200.996 363.236 201.731 357.031C202.173 353.257 207.337 339.67 215.701 327.872C214.998 328.544 214.319 329.223 213.665 329.902C208.39 335.35 203.819 341.727 200.105 348.819C200.286 348.139 200.473 347.452 200.659 346.773C201.799 342.651 203.033 338.568 204.285 334.537C207.91 322.928 211.946 311.084 219.171 302.283C223.251 297.316 228.215 293.489 232.101 288.303C238.953 279.177 241.787 266.534 241.706 254.139C241.706 252.856 241.662 251.58 241.594 250.305C240.852 236.717 237.022 223.712 232.874 211.053C230.644 204.259 228.277 197.119 228.383 189.917C228.39 188.907 228.45 187.899 228.563 186.898C230.276 171.975 242.733 163.038 250.214 150.998C261.338 133.086 262.148 106.463 276.741 92.7094C287.953 82.1416 303.524 82.7908 317.682 83.9381C330.849 85.01 342.733 87.0858 355.801 89.305C368.868 91.5243 382.129 95.691 392.611 105.451C399.382 111.746 404.664 120.087 409.354 128.73C415.632 140.309 421.12 153.096 421.873 166.918C421.929 167.906 421.96 168.888 421.96 169.861C422.091 186.015 416.305 201.67 415.539 217.892C415.508 218.647 415.483 219.401 415.477 220.156C415.473 220.196 415.473 220.237 415.477 220.277C415.339 234.34 419.793 249.104 425.853 261.038C434.464 278.046 439.069 297.585 439.17 317.538Z" fill="black"/>
<path d="M439.17 317.538C439.17 319.531 439.108 321.531 439.014 323.516C438.956 324.649 438.885 325.781 438.802 326.913C438.719 328.046 438.626 329.168 438.522 330.28C437.507 341.255 435.632 352.17 435.408 363.198C435.408 364.044 435.408 364.897 435.408 365.742C435.451 376.091 436.896 386.296 438.802 396.449H362.266C362.122 394.569 362.035 392.675 362.023 390.81C362.006 388.794 362.083 386.778 362.253 384.772C363.43 370.875 369.292 357.869 370.176 344.063C370.238 343.052 370.282 342.04 370.288 341.044C370.288 340.81 370.288 340.568 370.288 340.334C370.208 335.448 369.582 330.598 368.426 325.917C367.358 321.566 366.111 317.284 364.689 313.085C362.534 306.525 360.223 300.011 358.678 293.459C357.59 289.115 356.984 284.614 356.878 280.076C356.861 278.877 356.894 277.677 356.978 276.482C357.027 275.773 357.096 275.063 357.183 274.346C357.319 273.226 357.502 272.115 357.731 271.017C358.977 265.069 361.637 259.491 364.184 253.966C367.024 247.806 369.74 241.707 370.22 235.231C370.257 234.74 370.276 234.242 370.288 233.721C370.318 232.333 370.234 230.945 370.039 229.577C369.385 224.987 367.435 220.858 365.835 216.624C365.673 216.194 365.511 215.763 365.355 215.325C362.197 206.554 360.372 197.209 358.466 187.849C357.918 185.177 357.358 182.505 356.766 179.856C353.976 167.506 350.002 155.029 342.44 146.114C334.879 137.2 322.839 132.776 313.378 138.483C305.187 143.427 300.752 154.493 298.753 165.302C296.754 176.112 296.592 187.396 293.994 198.025C293.708 199.195 293.372 200.365 293.054 201.527C291.895 205.505 290.45 209.453 288.931 213.378C284.066 225.901 278.404 238.22 278.523 250.833V250.992C278.555 253.907 278.92 256.803 279.606 259.597C280.852 264.624 283.107 269.01 285.735 273.184C286.254 274.004 286.786 274.817 287.33 275.622C289.977 279.562 292.848 283.374 295.352 287.435C297.242 290.401 298.837 293.626 300.105 297.044C301.607 301.326 302.392 305.926 302.413 310.579C302.435 315.231 301.692 319.842 300.229 324.143C299.524 326.131 298.715 328.062 297.806 329.925C296.206 333.277 294.443 336.537 293.054 340.025C292.587 341.195 292.169 342.387 291.808 343.595C288.694 353.318 288.021 364.074 285.48 374.106C283.408 382.204 280.129 389.774 275.807 396.441H195.203C195.203 396.441 200.896 362.942 201.706 356.042C202.111 352.593 206.477 340.946 213.64 329.902C214.263 328.891 214.973 327.879 215.676 326.883C209.819 332.493 204.743 339.206 200.641 346.766L200.086 347.822C201.382 342.999 202.808 338.236 204.272 333.541C207.897 321.931 211.933 310.088 219.158 301.286C223.238 296.32 228.202 292.493 232.089 287.307C238.741 278.422 241.618 266.171 241.693 254.094C241.693 252.479 241.693 250.871 241.581 249.271C240.84 235.683 237.009 222.678 232.861 210.019C230.737 203.512 228.501 196.734 228.37 189.835C228.341 188.505 228.402 187.174 228.551 185.857C230.27 171.016 242.727 162.117 250.208 150.039C261.332 132.127 262.142 105.504 276.735 91.7509C287.946 81.1831 303.518 81.8323 317.675 82.9796C330.843 84.0515 342.727 86.1273 355.794 88.3465C368.862 90.5658 382.141 94.7249 392.611 104.455C399.382 110.788 404.664 119.091 409.354 127.742C415.632 139.321 421.119 152.108 421.873 165.929C421.948 167.242 421.977 168.553 421.96 169.862C421.854 185.66 416.286 201.014 415.539 216.911C415.489 217.983 415.464 219.047 415.476 220.126C415.472 220.166 415.472 220.207 415.476 220.247C415.551 234.015 419.936 248.372 425.853 260.004C434.614 277.312 439.225 297.234 439.17 317.538Z" fill="#463A3E"/>
</g>
<defs>
<linearGradient id="paint0_linear" x1="345.698" y1="399.196" x2="345.698" y2="51.2158" gradientUnits="userSpaceOnUse">
<stop stop-color="#2C6241"/>
<stop offset="0.71865" stop-color="#426A51" stop-opacity="0.770833"/>
<stop offset="0.71875" stop-color="#808080" stop-opacity="0.12"/>
<stop offset="1" stop-color="#808080" stop-opacity="0.1"/>
</linearGradient>
<clipPath id="clip0">
<rect width="692" height="445" fill="white"/>
</clipPath>
</defs>
</svg>
