<svg width="326" height="176" viewBox="0 0 326 176" fill="none" xmlns="http://www.w3.org/2000/svg">
<path d="M69.2 113.72C66.608 113.72 64.232 113.072 62.072 111.776C59.96 110.432 58.256 108.68 56.96 106.52C55.664 104.312 55.016 101.888 55.016 99.248L55.088 76.424C55.088 73.784 55.712 71.384 56.96 69.224C58.256 67.064 59.984 65.336 62.144 64.04C64.304 62.744 66.656 62.096 69.2 62.096C71.792 62.096 74.144 62.744 76.256 64.04C78.368 65.336 80.048 67.064 81.296 69.224C82.592 71.384 83.24 73.784 83.24 76.424L83.312 99.248C83.312 101.888 82.664 104.312 81.368 106.52C80.12 108.68 78.416 110.432 76.256 111.776C74.144 113.072 71.792 113.72 69.2 113.72ZM69.2 105.008C70.64 105.008 71.888 104.432 72.944 103.28C74.048 102.08 74.6 100.736 74.6 99.248L74.528 76.424C74.528 74.84 74.024 73.496 73.016 72.392C72.008 71.288 70.736 70.736 69.2 70.736C67.712 70.736 66.44 71.288 65.384 72.392C64.328 73.448 63.8 74.792 63.8 76.424V99.248C63.8 100.832 64.328 102.2 65.384 103.352C66.44 104.456 67.712 105.008 69.2 105.008ZM89.0743 113C88.8823 113 88.7863 112.88 88.7863 112.64L88.9303 63.176C88.9303 62.984 89.0263 62.888 89.2183 62.888H98.0023C98.1943 62.888 98.3623 62.984 98.5063 63.176L105.058 72.68L111.61 63.176C111.754 62.984 111.922 62.888 112.114 62.888H120.97C121.162 62.888 121.258 62.984 121.258 63.176L121.402 112.64C121.402 112.88 121.306 113 121.114 113H112.978C112.786 113 112.69 112.88 112.69 112.64L112.618 75.92L105.058 86.864L97.5703 75.92L97.4983 112.64C97.4983 112.88 97.4023 113 97.2103 113H89.0743ZM127.746 113C127.554 113 127.458 112.88 127.458 112.64L127.602 63.176C127.602 62.984 127.698 62.888 127.89 62.888H136.674C136.866 62.888 137.034 62.984 137.178 63.176L143.73 72.68L150.282 63.176C150.426 62.984 150.594 62.888 150.786 62.888H159.642C159.834 62.888 159.93 62.984 159.93 63.176L160.074 112.64C160.074 112.88 159.978 113 159.786 113H151.65C151.458 113 151.362 112.88 151.362 112.64L151.29 75.92L143.73 86.864L136.242 75.92L136.17 112.64C136.17 112.88 136.074 113 135.882 113H127.746ZM179.378 113.72C176.834 113.72 174.482 113.072 172.322 111.776C170.162 110.432 168.434 108.656 167.138 106.448C165.89 104.24 165.266 101.816 165.266 99.176L165.41 63.176C165.41 62.984 165.506 62.888 165.698 62.888H173.762C173.954 62.888 174.05 62.984 174.05 63.176V99.176C174.05 100.808 174.554 102.2 175.562 103.352C176.618 104.456 177.89 105.008 179.378 105.008C180.914 105.008 182.186 104.456 183.194 103.352C184.25 102.2 184.778 100.808 184.778 99.176V63.176C184.778 62.984 184.874 62.888 185.066 62.888H193.13C193.322 62.888 193.418 62.984 193.418 63.176L193.562 99.176C193.562 101.864 192.914 104.312 191.618 106.52C190.37 108.728 188.666 110.48 186.506 111.776C184.394 113.072 182.018 113.72 179.378 113.72ZM199.895 113C199.511 113 199.319 112.832 199.319 112.496L199.247 63.464C199.247 63.08 199.439 62.888 199.823 62.888H206.303L218.471 91.256L218.111 63.464C218.111 63.08 218.327 62.888 218.759 62.888H225.887C226.175 62.888 226.319 63.08 226.319 63.464L226.391 112.568C226.391 112.856 226.271 113 226.031 113H219.695L207.239 86.504L207.743 112.424C207.743 112.808 207.527 113 207.095 113H199.895ZM233.006 113C232.766 113 232.646 112.88 232.646 112.64L232.718 63.176C232.718 62.984 232.814 62.888 233.006 62.888H241.07C241.262 62.888 241.358 62.984 241.358 63.176L241.43 112.64C241.43 112.88 241.334 113 241.142 113H233.006ZM254.963 113C254.771 113 254.675 112.88 254.675 112.64V71.6H245.315C245.075 71.6 244.955 71.48 244.955 71.24L245.027 63.176C245.027 62.984 245.123 62.888 245.315 62.888H272.675C272.915 62.888 273.035 62.984 273.035 63.176V71.24C273.035 71.48 272.939 71.6 272.747 71.6H263.315L263.387 112.64C263.387 112.88 263.291 113 263.099 113H254.963ZM283.287 113C283.143 113 283.071 112.904 283.071 112.712L283.143 92.264L273.495 63.176C273.447 62.984 273.519 62.888 273.711 62.888H281.703C281.943 62.888 282.087 62.984 282.135 63.176L287.463 82.544L292.863 63.176C292.911 62.984 293.031 62.888 293.223 62.888H301.287C301.479 62.888 301.551 62.984 301.503 63.176L291.783 91.976L291.855 112.712C291.855 112.904 291.759 113 291.567 113H283.287Z" fill="#59916C"/>
<path d="M21.1276 7.58017C19.4282 5.21125 15.6899 6.41343 15.6899 9.32884V75.9611C15.6899 78.7585 19.1805 80.0335 20.9836 77.8948L46.8083 47.2626C47.6934 46.2128 47.7527 44.696 46.9523 43.5802L21.1276 7.58017Z" fill="#59906C"/>
<path d="M15.6899 166.669C15.6899 169.585 19.4286 170.787 21.1278 168.418L46.9525 132.409C47.7528 131.293 47.6933 129.776 46.8081 128.727L20.9833 98.1032C19.1801 95.9648 15.6899 97.24 15.6899 100.037V166.669Z" fill="#59906C"/>
<path d="M47.6147 85.9021C48.5759 85.5725 49.431 84.9593 50.0677 84.1432L89.7029 33.3397C92.5854 29.645 89.6627 24.4988 85.1804 25.3767L67.0233 28.9326C65.8367 29.165 64.7517 29.8233 63.9692 30.7857L19.0004 86.0887C15.7845 90.0437 19.3899 95.581 24.124 93.9576L47.6147 85.9021Z" fill="#59906C"/>
<path d="M24.1361 81.9738C19.4022 80.3574 15.7975 85.8957 19.0121 89.8465L63.9754 145.107C64.7577 146.068 65.8424 146.726 67.0288 146.957L85.1893 150.502C89.6719 151.377 92.5976 146.231 89.7166 142.538L50.0981 91.7586C49.4608 90.9418 48.6043 90.3286 47.6415 89.9998L24.1361 81.9738Z" fill="#59906C"/>
</svg>
