<svg width="101" height="50" viewBox="0 0 101 50" fill="none" xmlns="http://www.w3.org/2000/svg">
<path d="M27.3359 32.2C26.6159 32.2 25.9559 32.02 25.3559 31.66C24.7693 31.2867 24.2959 30.8 23.9359 30.2C23.5759 29.5867 23.3959 28.9133 23.3959 28.18L23.4159 21.84C23.4159 21.1067 23.5893 20.44 23.9359 19.84C24.2959 19.24 24.7759 18.76 25.3759 18.4C25.9759 18.04 26.6293 17.86 27.3359 17.86C28.0559 17.86 28.7093 18.04 29.2959 18.4C29.8826 18.76 30.3493 19.24 30.6959 19.84C31.0559 20.44 31.2359 21.1067 31.2359 21.84L31.2559 28.18C31.2559 28.9133 31.0759 29.5867 30.7159 30.2C30.3693 30.8 29.8959 31.2867 29.2959 31.66C28.7093 32.02 28.0559 32.2 27.3359 32.2ZM27.3359 29.78C27.7359 29.78 28.0826 29.62 28.3759 29.3C28.6826 28.9667 28.8359 28.5933 28.8359 28.18L28.8159 21.84C28.8159 21.4 28.6759 21.0267 28.3959 20.72C28.1159 20.4133 27.7626 20.26 27.3359 20.26C26.9226 20.26 26.5693 20.4133 26.2759 20.72C25.9826 21.0133 25.8359 21.3867 25.8359 21.84V28.18C25.8359 28.62 25.9826 29 26.2759 29.32C26.5693 29.6267 26.9226 29.78 27.3359 29.78ZM32.8566 32C32.8032 32 32.7766 31.9667 32.7766 31.9L32.8166 18.16C32.8166 18.1067 32.8432 18.08 32.8966 18.08H35.3366C35.3899 18.08 35.4366 18.1067 35.4766 18.16L37.2966 20.8L39.1166 18.16C39.1566 18.1067 39.2032 18.08 39.2566 18.08H41.7166C41.7699 18.08 41.7966 18.1067 41.7966 18.16L41.8366 31.9C41.8366 31.9667 41.8099 32 41.7566 32H39.4966C39.4432 32 39.4166 31.9667 39.4166 31.9L39.3966 21.7L37.2966 24.74L35.2166 21.7L35.1966 31.9C35.1966 31.9667 35.1699 32 35.1166 32H32.8566ZM43.5988 32C43.5454 32 43.5188 31.9667 43.5188 31.9L43.5588 18.16C43.5588 18.1067 43.5854 18.08 43.6388 18.08H46.0788C46.1321 18.08 46.1788 18.1067 46.2188 18.16L48.0388 20.8L49.8588 18.16C49.8988 18.1067 49.9454 18.08 49.9988 18.08H52.4588C52.5121 18.08 52.5388 18.1067 52.5388 18.16L52.5788 31.9C52.5788 31.9667 52.5521 32 52.4988 32H50.2388C50.1854 32 50.1588 31.9667 50.1588 31.9L50.1388 21.7L48.0388 24.74L45.9588 21.7L45.9388 31.9C45.9388 31.9667 45.9121 32 45.8588 32H43.5988ZM57.9409 32.2C57.2343 32.2 56.5809 32.02 55.9809 31.66C55.3809 31.2867 54.9009 30.7933 54.5409 30.18C54.1943 29.5667 54.0209 28.8933 54.0209 28.16L54.0609 18.16C54.0609 18.1067 54.0876 18.08 54.1409 18.08H56.3809C56.4343 18.08 56.4609 18.1067 56.4609 18.16V28.16C56.4609 28.6133 56.6009 29 56.8809 29.32C57.1743 29.6267 57.5276 29.78 57.9409 29.78C58.3676 29.78 58.7209 29.6267 59.0009 29.32C59.2943 29 59.4409 28.6133 59.4409 28.16V18.16C59.4409 18.1067 59.4676 18.08 59.5209 18.08H61.7609C61.8143 18.08 61.8409 18.1067 61.8409 18.16L61.8809 28.16C61.8809 28.9067 61.7009 29.5867 61.3409 30.2C60.9943 30.8133 60.5209 31.3 59.9209 31.66C59.3343 32.02 58.6743 32.2 57.9409 32.2ZM63.6402 32C63.5335 32 63.4802 31.9533 63.4802 31.86L63.4602 18.24C63.4602 18.1333 63.5135 18.08 63.6202 18.08H65.4202L68.8002 25.96L68.7002 18.24C68.7002 18.1333 68.7602 18.08 68.8802 18.08H70.8602C70.9402 18.08 70.9802 18.1333 70.9802 18.24L71.0002 31.88C71.0002 31.96 70.9668 32 70.9002 32H69.1402L65.6802 24.64L65.8202 31.84C65.8202 31.9467 65.7602 32 65.6402 32H63.6402ZM72.8375 32C72.7708 32 72.7375 31.9667 72.7375 31.9L72.7575 18.16C72.7575 18.1067 72.7842 18.08 72.8375 18.08H75.0775C75.1308 18.08 75.1575 18.1067 75.1575 18.16L75.1775 31.9C75.1775 31.9667 75.1508 32 75.0975 32H72.8375ZM78.9367 32C78.8834 32 78.8567 31.9667 78.8567 31.9V20.5H76.2567C76.1901 20.5 76.1567 20.4667 76.1567 20.4L76.1767 18.16C76.1767 18.1067 76.2034 18.08 76.2567 18.08H83.8567C83.9234 18.08 83.9567 18.1067 83.9567 18.16V20.4C83.9567 20.4667 83.9301 20.5 83.8767 20.5H81.2567L81.2767 31.9C81.2767 31.9667 81.2501 32 81.1967 32H78.9367ZM86.8045 32C86.7645 32 86.7445 31.9733 86.7445 31.92L86.7645 26.24L84.0845 18.16C84.0712 18.1067 84.0912 18.08 84.1445 18.08H86.3645C86.4312 18.08 86.4712 18.1067 86.4845 18.16L87.9645 23.54L89.4645 18.16C89.4779 18.1067 89.5112 18.08 89.5645 18.08H91.8045C91.8579 18.08 91.8779 18.1067 91.8645 18.16L89.1645 26.16L89.1845 31.92C89.1845 31.9733 89.1579 32 89.1045 32H86.8045Z" fill="#59916C"/>
<path d="M11.5936 4.82355C9.68337 3.00553 6.52539 4.35959 6.52539 6.99668V17.6232C6.52539 20.1471 9.45204 21.543 11.4134 19.9547L17.4459 15.0694C18.853 13.9299 18.9377 11.8131 17.6261 10.5649L11.5936 4.82355Z" fill="#59906C"/>
<path d="M6.52539 43.0021C6.52539 45.6394 9.68372 46.9934 11.5939 45.175L17.6264 39.4323C18.9378 38.1839 18.8528 36.067 17.4456 34.9277L11.4131 30.0439C9.45164 28.456 6.52539 29.8519 6.52539 32.3756V43.0021Z" fill="#59906C"/>
<path d="M19.54 24.4672C20.1212 24.3311 20.6521 24.0607 21.0896 23.6779L31.4846 14.5812C34.1707 12.2306 31.8033 7.69574 28.1454 8.18484C27.475 8.27446 26.8554 8.54447 26.3541 8.96533L15.7685 17.8533C12.7564 20.3822 15.6105 25.3872 19.54 24.4672Z" fill="#59906C"/>
<path d="M19.5498 25.5049C15.6177 24.5882 12.7604 29.5963 15.7732 32.1243L26.3563 41.0043C26.8574 41.4247 27.4769 41.6943 28.1472 41.7837C31.806 42.2713 34.1773 37.7359 31.4921 35.3862L21.1024 26.2947C20.6642 25.9113 20.1323 25.6407 19.5498 25.5049Z" fill="#59906C"/>
</svg>
