<svg width="692" height="445" viewBox="0 0 692 445" fill="none" xmlns="http://www.w3.org/2000/svg">
<g clip-path="url(#clip0)">
<path d="M644.828 434.73C643.935 437.578 642.823 440.313 641.508 442.9C641.142 443.614 640.759 444.317 640.351 445H606.44C606.202 444.779 605.972 444.548 605.734 444.328C604.542 444.212 603.359 444.065 602.201 443.908C602.321 443.782 602.448 443.656 602.568 443.53C601.955 443.593 601.342 443.656 600.729 443.687C601.214 443.761 601.708 443.834 602.201 443.908C601.835 444.275 601.461 444.643 601.078 445H599.597L600.593 443.687C599.801 443.719 599.018 443.74 598.227 443.719L600.704 442.9L603.376 442.018C603.478 442.123 603.589 442.228 603.691 442.333C608.253 437.387 611.961 431.361 614.597 424.612C617.233 417.863 618.742 410.529 619.034 403.046C619.326 395.563 618.396 388.084 616.298 381.054C614.201 374.024 610.979 367.585 606.823 362.122C613.512 367.659 619.24 374.781 623.675 383.076C628.11 391.37 631.163 400.67 632.656 410.433C633.424 415.206 633.539 420.104 632.997 424.923C633.295 424.514 633.592 424.105 633.882 423.685C638.193 417.242 641.301 409.707 642.984 401.614C644.667 393.522 644.884 385.072 643.619 376.864C646.92 385.929 648.727 395.713 648.935 405.648C649.142 415.582 647.746 425.468 644.828 434.73Z" fill="#2C6241"/>
<path d="M475.669 83.5442C488.87 83.5442 499.571 70.3427 499.571 54.058C499.571 37.7732 488.87 24.5718 475.669 24.5718C462.468 24.5718 451.767 37.7732 451.767 54.058C451.767 70.3427 462.468 83.5442 475.669 83.5442Z" fill="#2F2E41"/>
<path d="M553.18 432.709L542.745 432.708L537.78 383.055L553.182 383.056L553.18 432.709Z" fill="#CE734C"/>
<path d="M535.291 429.03H555.416V444.662H522.62C522.62 442.609 522.948 440.576 523.585 438.68C524.221 436.783 525.155 435.06 526.331 433.609C527.508 432.157 528.905 431.006 530.442 430.22C531.98 429.435 533.627 429.03 535.291 429.03Z" fill="#2F2E41"/>
<path d="M446.731 431.024L436.656 427.673L442.339 378.137L457.209 383.084L446.731 431.024Z" fill="#CE734C"/>
<path d="M430.235 421.728L449.666 428.191L446.368 443.283L414.702 432.751C415.577 428.748 417.705 425.338 420.618 423.271C423.531 421.204 426.99 420.649 430.235 421.728Z" fill="#2F2E41"/>
<path d="M466.506 202.963L435.433 420.178L451.367 424.109L501.562 270.781L539.009 423.127L558.131 420.178C558.131 420.178 549.367 201.98 521.481 183.306L466.506 202.963Z" fill="#2F2E41"/>
<path d="M417.228 280.668C418.348 279.98 419.332 278.998 420.111 277.79C420.891 276.582 421.446 275.178 421.737 273.677C422.029 272.176 422.051 270.614 421.8 269.102C421.55 267.589 421.034 266.163 420.288 264.924L437.425 233.924L421.621 233.621L407.771 263.105C406.165 264.789 405.116 267.14 404.822 269.713C404.529 272.287 405.01 274.904 406.176 277.068C407.341 279.233 409.11 280.795 411.147 281.459C413.184 282.122 415.348 281.84 417.228 280.668Z" fill="#CE734C"/>
<path d="M530.364 242.336C531.485 241.648 532.469 240.666 533.248 239.458C534.027 238.25 534.582 236.846 534.874 235.345C535.166 233.844 535.187 232.282 534.937 230.77C534.687 229.257 534.171 227.831 533.425 226.592L550.562 195.592L534.758 195.289L520.907 224.773C519.302 226.457 518.253 228.808 517.959 231.381C517.665 233.955 518.147 236.572 519.312 238.736C520.478 240.901 522.247 242.463 524.284 243.127C526.321 243.79 528.484 243.508 530.364 242.336V242.336Z" fill="#CE734C"/>
<path d="M476.277 89.3821C487.822 89.3821 497.182 77.8357 497.182 63.5926C497.182 49.3495 487.822 37.8032 476.277 37.8032C464.731 37.8032 455.371 49.3495 455.371 63.5926C455.371 77.8357 464.731 89.3821 476.277 89.3821Z" fill="#CE734C"/>
<path d="M521.482 103.693C520.685 99.7614 507.14 100.744 507.14 100.744C507.14 100.744 491.888 96.4188 492.033 96.9596C479.18 95.7392 463.502 101.692 461.219 102.594C456.547 104.184 447.621 109.048 441.184 112.625C440.288 113.123 439.588 114.038 439.235 115.169C438.883 116.301 438.907 117.559 439.302 118.669L458.937 173.968L461.726 209.843L526.262 185.271C510.327 177.408 522.278 107.624 521.482 103.693Z" fill="#59906C"/>
<path d="M515.904 104.676L521.201 103.035L550.163 173.477L551.757 213.775L533.432 196.084V180.358L514.311 149.888L515.904 104.676Z" fill="#59906C"/>
<path d="M446.189 110.082L440.056 113.444C439.737 113.619 439.457 113.889 439.242 114.228C439.027 114.568 438.883 114.968 438.823 115.393L426.669 200.997L414.718 244.244L430.653 254.072L448.978 200.014L455.352 160.699L446.189 110.082Z" fill="#59906C"/>
<path d="M454.354 51.4355C458.597 49.7168 463.073 52.4112 467.217 54.4624C471.302 56.4839 475.667 57.9406 480.061 57.6221C484.455 57.3037 488.898 55.0146 491.555 50.6854C494.211 46.3561 494.678 39.8679 492.049 35.5137C490.318 32.6474 487.556 31.0119 484.79 29.947C478.88 27.6716 472.266 27.593 466.649 30.8031C461.032 34.0132 456.627 40.7947 456.164 48.4103" fill="#2F2E41"/>
<path d="M475.032 30.8929C473.607 18.9899 478.892 6.6313 486.106 2.19792C493.319 -2.23545 501.782 0.379835 508.281 6.98169C514.779 13.5835 519.517 23.7286 523.043 34.5129C526.569 45.2972 529.01 56.848 531.883 68.0951C534.434 78.084 537.429 88.0789 542.275 95.7185C547.121 103.358 554.168 108.329 560.92 106.23C555.373 115.431 545.168 113.838 538.836 105.968C532.505 98.0981 529.214 85.7971 526.623 73.8233C524.032 61.8495 521.778 49.3212 516.766 39.3987C507.85 21.7464 490.353 16.4431 477.858 27.6055" fill="#2F2E41"/>
<path d="M692 442.9H0V445H692V442.9Z" fill="#3F3D56"/>
<path d="M363.057 241.41H61.0422C58.6239 241.407 56.3054 240.221 54.5954 238.111C52.8854 236.002 51.9235 233.142 51.9209 230.158V141.392C51.9235 138.409 52.8854 135.548 54.5954 133.439C56.3054 131.329 58.6239 130.143 61.0422 130.14H363.057C365.475 130.143 367.794 131.329 369.504 133.439C371.214 135.548 372.176 138.409 372.178 141.392V230.158C372.176 233.142 371.214 236.002 369.504 238.111C367.794 240.221 365.475 241.407 363.057 241.41ZM61.0422 132.64C59.1613 132.643 57.3582 133.566 56.0282 135.207C54.6983 136.847 53.9501 139.072 53.9479 141.392V230.158C53.9501 232.479 54.6983 234.703 56.0282 236.344C57.3582 237.984 59.1613 238.907 61.0422 238.91H363.057C364.938 238.907 366.741 237.984 368.071 236.344C369.401 234.703 370.149 232.479 370.151 230.158V141.392C370.149 139.072 369.401 136.847 368.071 135.207C366.741 133.566 364.938 132.643 363.057 132.64H61.0422Z" fill="#3F3D56"/>
<path d="M348.362 222.657H75.7381C75.6047 222.658 75.4727 222.626 75.3494 222.563C75.2261 222.5 75.114 222.408 75.0195 222.292C74.9251 222.176 74.8502 222.038 74.7991 221.886C74.748 221.734 74.7217 221.571 74.7217 221.407C74.7217 221.242 74.748 221.08 74.7991 220.928C74.8502 220.776 74.9251 220.638 75.0195 220.522C75.114 220.406 75.2261 220.313 75.3494 220.251C75.4727 220.188 75.6047 220.156 75.7381 220.157H348.362C348.496 220.156 348.628 220.188 348.751 220.251C348.874 220.313 348.986 220.406 349.081 220.522C349.175 220.638 349.25 220.776 349.301 220.928C349.352 221.08 349.379 221.242 349.379 221.407C349.379 221.571 349.352 221.734 349.301 221.886C349.25 222.038 349.175 222.176 349.081 222.292C348.986 222.408 348.874 222.5 348.751 222.563C348.628 222.626 348.496 222.658 348.362 222.657Z" fill="#2C6241"/>
<path d="M104.622 181.399H82.326C82.0577 181.4 81.8007 181.533 81.6112 181.767C81.4218 182.001 81.3154 182.319 81.3154 182.65C81.3154 182.981 81.4218 183.298 81.6112 183.532C81.8007 183.767 82.0577 183.899 82.326 183.9H92.4607V206.007C92.4429 207.61 92.921 209.16 93.7976 210.343C94.6742 211.525 95.8834 212.251 97.1787 212.372C97.2421 212.376 97.3074 212.377 97.3737 212.377C98.1704 212.359 98.9515 212.101 99.6494 211.627C100.347 211.152 100.941 210.475 101.379 209.654C101.54 209.389 101.609 209.056 101.571 208.728C101.532 208.4 101.39 208.105 101.175 207.906C100.961 207.707 100.691 207.622 100.425 207.669C100.159 207.715 99.9193 207.89 99.7579 208.155C99.4997 208.685 99.1336 209.122 98.6962 209.424C98.2587 209.725 97.7649 209.88 97.2638 209.874C96.4894 209.785 95.7714 209.336 95.2558 208.618C94.7401 207.9 94.4655 206.966 94.4877 206.007V183.9H104.622C104.756 183.9 104.888 183.868 105.011 183.806C105.134 183.743 105.247 183.651 105.341 183.535C105.435 183.419 105.51 183.281 105.561 183.129C105.613 182.977 105.639 182.814 105.639 182.65C105.639 182.485 105.613 182.322 105.561 182.17C105.51 182.018 105.435 181.88 105.341 181.764C105.247 181.648 105.134 181.556 105.011 181.494C104.888 181.431 104.756 181.399 104.622 181.399L104.622 181.399Z" fill="#59906C"/>
<path d="M180.632 290.17C185.11 290.17 188.74 285.692 188.74 280.168C188.74 274.644 185.11 270.166 180.632 270.166C176.154 270.166 172.524 274.644 172.524 280.168C172.524 285.692 176.154 290.17 180.632 290.17Z" fill="#2C6241"/>
<path d="M212.05 290.17C216.528 290.17 220.158 285.692 220.158 280.168C220.158 274.644 216.528 270.166 212.05 270.166C207.572 270.166 203.942 274.644 203.942 280.168C203.942 285.692 207.572 290.17 212.05 290.17Z" fill="#59906C"/>
<path d="M243.467 290.17C247.945 290.17 251.575 285.692 251.575 280.168C251.575 274.644 247.945 270.166 243.467 270.166C238.989 270.166 235.359 274.644 235.359 280.168C235.359 285.692 238.989 290.17 243.467 290.17Z" fill="#2C6241"/>
<path d="M109.354 211.444C109.685 211.43 109.999 211.258 110.229 210.964C110.459 210.67 110.588 210.277 110.588 209.869C110.588 209.46 110.459 209.068 110.229 208.774C109.999 208.48 109.685 208.308 109.354 208.294C109.023 208.308 108.71 208.48 108.48 208.774C108.25 209.068 108.121 209.46 108.121 209.869C108.121 210.277 108.25 210.67 108.48 210.964C108.71 211.258 109.023 211.43 109.354 211.444Z" fill="#3F3D56"/>
<path d="M117.462 211.444C117.793 211.43 118.106 211.258 118.336 210.964C118.567 210.67 118.695 210.277 118.695 209.869C118.695 209.46 118.567 209.068 118.336 208.774C118.106 208.48 117.793 208.308 117.462 208.294C117.131 208.308 116.817 208.48 116.587 208.774C116.357 209.068 116.229 209.46 116.229 209.869C116.229 210.277 116.357 210.67 116.587 210.964C116.817 211.258 117.131 211.43 117.462 211.444Z" fill="#3F3D56"/>
<path d="M125.569 211.444C125.9 211.43 126.214 211.258 126.444 210.964C126.674 210.67 126.802 210.277 126.802 209.869C126.802 209.46 126.674 209.068 126.444 208.774C126.214 208.48 125.9 208.308 125.569 208.294C125.238 208.308 124.925 208.48 124.695 208.774C124.465 209.068 124.336 209.46 124.336 209.869C124.336 210.277 124.465 210.67 124.695 210.964C124.925 211.258 125.238 211.43 125.569 211.444Z" fill="#3F3D56"/>
</g>
<defs>
<clipPath id="clip0">
<rect width="692" height="445" fill="white"/>
</clipPath>
</defs>
</svg>
